<?xml version="1.0" encoding="utf-8"?>
<!-- Generator: Adobe Illustrator 24.2.3, SVG Export Plug-In . SVG Version: 6.00 Build 0)  -->
<svg version="1.1" id="Layer_1" xmlns="http://www.w3.org/2000/svg" xmlns:xlink="http://www.w3.org/1999/xlink" x="0px" y="0px"
	 viewBox="0 0 32 32" style="enable-background:new 0 0 32 32;" xml:space="preserve">
<style type="text/css">
	.st0{opacity:0.2;enable-background:new    ;}
	.st1{fill:#EEEEEE;}
	.st2{opacity:0.1;enable-background:new    ;}
	.st3{opacity:0.2;fill:#FFFFFF;enable-background:new    ;}
</style>
<path class="st0" d="M27.6,28.2c0,2.1-0.5,2.7-7,2.7c-1.8,0-4.1,0.2-5.2-0.6c-1.1-0.7-0.7-1.7-0.7-2.8c0-2.1,2.1-3.6,5.7-3.6
	S27.6,26.1,27.6,28.2z"/>
<path class="st1" d="M27.6,27.2c0,2.1-0.5,2.7-7,2.7c-1.8,0-4.1,0.2-5.2-0.6c-1.1-0.7-0.7-1.7-0.7-2.8c0-2.1,2.1-3.6,5.7-3.6
	S27.6,25.1,27.6,27.2z"/>
<path class="st0" d="M29,15.5L29,15.5L29,15.5L29,15.5L29,15.5c0-0.2,0-0.3,0-0.5c0-0.3,0-0.6-0.1-0.9c0-0.2,0-0.3-0.1-0.5
	c-0.1-0.8-0.4-1.7-0.7-2.4c-0.1-0.2-0.2-0.4-0.2-0.6C27,8.8,25.8,7.2,24.2,6c-0.1-0.1-0.3-0.2-0.4-0.3s-0.3-0.2-0.4-0.3
	c-0.1-0.1-0.3-0.2-0.4-0.3c-0.2-0.2-0.5-0.3-0.7-0.4c-0.3-0.1-0.5-0.3-0.8-0.4c-0.8-0.4-1.5-0.7-2.4-0.9c-0.3-0.1-0.6-0.1-0.8-0.2
	c-0.3-0.1-0.7-0.1-1-0.1c-0.2,0-0.4,0-0.6,0c-0.3,0-0.5,0-0.8,0s-0.5,0-0.8,0c-0.2,0-0.4,0-0.6,0c-0.3,0-0.6,0.1-0.9,0.1
	c-0.3,0-0.6,0.1-0.9,0.2c-0.2,0.1-0.5,0.1-0.7,0.2c-0.2,0.1-0.4,0.1-0.6,0.2c-0.3,0.1-0.7,0.3-1,0.4c-0.4,0.3-1,0.6-1.5,0.9
	C8.8,5.2,8.6,5.3,8.4,5.5C8,5.8,7.6,6.1,7.2,6.4C7,6.6,6.9,6.7,6.8,6.9c-0.7,0.6-1.2,1.3-1.7,2C5,9.1,4.9,9.2,4.8,9.3
	c0,0.2-0.1,0.3-0.2,0.5s-0.2,0.3-0.3,0.5c-0.2,0.5-0.4,0.9-0.6,1.4c-0.1,0.4-0.3,0.8-0.4,1.2c-0.1,0.4-0.2,0.8-0.2,1.3
	c0,0.3-0.1,0.7-0.1,1.1v0.1c0,0,0,0,0,0.1c0,0.2,0,0.3,0,0.5c0,3,1,5.7,2.7,7.9c0.2,0.2,0.4,0.5,0.6,0.7c2.1,2.3,5,3.9,8.3,4.3
	c0.1,0,0.2,0,0.3,0c0.4,0,0.7,0,1.1,0c0.2,0,0.3,0,0.5,0c0.1,0,0.3,0,0.4,0c3.2-0.2,6.1-1.6,8.2-3.7c0.2-0.2,0.4-0.4,0.6-0.6
	c2-2.3,3.3-5.3,3.3-8.6C29,15.8,29,15.7,29,15.5z M20,10c1.1,0,2,1.3,2,3c0,0.2,0,0.3,0,0.5c-0.2,1.4-1,2.5-2,2.5s-1.8-1.1-2-2.5
	c0-0.2,0-0.3,0-0.5C18,11.3,18.9,10,20,10z M14,10c1.1,0,2,1.3,2,3c0,0.2,0,0.3,0,0.5c-0.2,1.4-1,2.5-2,2.5s-1.8-1.1-2-2.5
	c0-0.2,0-0.3,0-0.5C12,11.3,12.9,10,14,10z"/>
<path class="st1" d="M16,2C8.8,2,3,7.8,3,15c0,0.2,0,0.3,0,0.5c0.1,3.1,1.3,6,3.3,8.1c0.2,0.2,0.3,0.4,0.5,0.6
	c0.1,0.1,0.1,0.1,0.2,0.2c2,1.9,4.7,3.2,7.6,3.5c0,0,0,0,0.1,0c0.4,0,0.9,0.1,1.3,0.1c0.3,0,0.7,0,1,0l0,0c2.8-0.2,5.4-1.3,7.5-3.1
	c0.3-0.2,0.5-0.4,0.7-0.7c2.3-2.2,3.7-5.3,3.8-8.6c0,0,0,0,0-0.1l0,0c0-0.2,0-0.3,0-0.5C29,7.8,23.2,2,16,2z M16,13.5
	c-0.2,1.4-1,2.5-2,2.5s-1.8-1.1-2-2.5c0-0.2,0-0.3,0-0.5c0-1.7,0.9-3,2-3s2,1.3,2,3C16,13.2,16,13.3,16,13.5z M22,13.5
	c-0.2,1.4-1,2.5-2,2.5s-1.8-1.1-2-2.5c0-0.2,0-0.3,0-0.5c0-1.7,0.9-3,2-3s2,1.3,2,3C22,13.2,22,13.3,22,13.5z"/>
<path class="st2" d="M16,14c0,1.7-0.9,3-2,3s-2-1.3-2-3c0-0.2,0-0.3,0-0.5c0.2,1.4,1,2.5,2,2.5s1.8-1.1,2-2.5C16,13.7,16,13.8,16,14
	z"/>
<path class="st0" d="M17,28.2c0,2.1-0.5,2.7-7,2.7c-1.8,0-4.1,0.2-5.2-0.6c-1.1-0.7-0.7-1.7-0.7-2.8c0-2.1,2.1-3.6,5.7-3.6
	S17,26.1,17,28.2z"/>
<path class="st1" d="M17,27.2c0,2.1-0.5,2.7-7,2.7c-1.8,0-4.1,0.2-5.2-0.6c-1.1-0.7-0.7-1.7-0.7-2.8c0-2.1,2.1-3.6,5.7-3.6
	S17,25.1,17,27.2z"/>
<path class="st2" d="M22,14c0,1.7-0.9,3-2,3s-2-1.3-2-3c0-0.2,0-0.3,0-0.5c0.2,1.4,1,2.5,2,2.5s1.8-1.1,2-2.5C22,13.7,22,13.8,22,14
	z"/>
<path class="st3" d="M16,2C8.8,2,3,7.8,3,15c0,0.1,0,0.3,0,0.4C3.3,8.5,9,3,16,3s12.8,5.6,13,12.6c0-0.2,0-0.4,0-0.6
	C29,7.8,23.2,2,16,2z"/>
</svg>
